<?xml version="1.0" encoding="UTF-8" standalone="no"?>
<!-- Created with Inkscape (http://www.inkscape.org/) -->

<svg
   xmlns:dc="http://purl.org/dc/elements/1.1/"
   xmlns:cc="http://creativecommons.org/ns#"
   xmlns:rdf="http://www.w3.org/1999/02/22-rdf-syntax-ns#"
   xmlns:svg="http://www.w3.org/2000/svg"
   xmlns="http://www.w3.org/2000/svg"
   xmlns:sodipodi="http://sodipodi.sourceforge.net/DTD/sodipodi-0.dtd"
   xmlns:inkscape="http://www.inkscape.org/namespaces/inkscape"
   width="173.1371"
   height="173.13553"
   id="svg2"
   sodipodi:version="0.32"
   inkscape:version="0.47 r22583"
   version="1.0"
   sodipodi:docname="shifter.svg"
   inkscape:output_extension="org.inkscape.output.svg.inkscape"
   inkscape:export-filename="C:\Users\et1337\Documents\Stainless\ui\shifter.png"
   inkscape:export-xdpi="38.344082"
   inkscape:export-ydpi="38.344082">
  <defs
     id="defs4">
    <inkscape:perspective
       sodipodi:type="inkscape:persp3d"
       inkscape:vp_x="0 : 526.18109 : 1"
       inkscape:vp_y="0 : 1000 : 0"
       inkscape:vp_z="744.09448 : 526.18109 : 1"
       inkscape:persp3d-origin="372.04724 : 350.78739 : 1"
       id="perspective10" />
  </defs>
  <sodipodi:namedview
     id="base"
     pagecolor="#ffffff"
     bordercolor="#666666"
     borderopacity="1.0"
     gridtolerance="10000"
     guidetolerance="10"
     objecttolerance="10"
     inkscape:pageopacity="0.0"
     inkscape:pageshadow="2"
     inkscape:zoom="4.510917"
     inkscape:cx="86.56855"
     inkscape:cy="86.567764"
     inkscape:document-units="px"
     inkscape:current-layer="layer1"
     showgrid="false"
     inkscape:window-width="1680"
     inkscape:window-height="1028"
     inkscape:window-x="-8"
     inkscape:window-y="-8"
     inkscape:window-maximized="0" />
  <metadata
     id="metadata7">
    <rdf:RDF>
      <cc:Work
         rdf:about="">
        <dc:format>image/svg+xml</dc:format>
        <dc:type
           rdf:resource="http://purl.org/dc/dcmitype/StillImage" />
        <dc:title></dc:title>
      </cc:Work>
    </rdf:RDF>
  </metadata>
  <g
     inkscape:label="Layer 1"
     inkscape:groupmode="layer"
     id="layer1"
     transform="translate(-285.47727,-439.62006)">
    <rect
       style="fill:#000000;fill-opacity:1;stroke:none"
       id="rect3590"
       width="175.2"
       height="175.2"
       x="285.47726"
       y="437.55557" />
    <path
       style="fill:#ffffff;fill-opacity:1;stroke:none"
       d="m 362.04107,437.56013 c -2.31322,0.0613 -6.00124,0.74749 -11.82675,2.30845 -31.06938,8.32509 3.60423,7.32963 -21.91428,26.91085 -25.51852,19.58123 -15.60289,-13.62611 -31.68558,14.23018 -16.0827,27.8563 7.74012,2.64142 3.5417,34.53191 -4.19843,31.89049 -20.68935,1.37515 -12.36434,32.44481 8.32502,31.06966 7.32957,-3.57265 26.91061,21.9461 19.58105,25.51875 -13.62599,15.60303 14.23006,31.68587 27.85604,16.08285 2.64138,-7.74019 34.53159,-3.54173 31.8902,4.19846 1.40677,20.68953 32.47614,12.36445 31.06938,-8.32509 -3.60424,-7.36125 21.91428,-26.94248 25.51852,-19.58123 15.60289,13.65774 31.68559,-14.19856 16.08269,-27.85629 -7.74013,-2.67304 -3.54171,-34.56353 4.19843,-31.89049 20.68935,-1.37515 12.36434,-32.44481 -8.32502,-31.06966 -7.32956,3.60427 -26.91061,-21.91448 -19.58105,-25.51875 13.62599,-15.60304 -14.23005,-31.68587 -27.85605,-16.08284 -2.6414,7.70857 -34.5316,3.51011 -25.91079,-3.41124 -10.62543,-14.90716 -20.64939,-14.64127 z m 11.0362,21.44014 c 36.51534,0 66.15393,29.63887 66.15393,66.15453 0,36.51567 -29.6386,66.15453 -66.15393,66.15453 -36.51533,0 -66.15393,-29.63887 -66.15393,-66.15453 0,-36.51566 29.6386,-66.15453 66.15393,-66.15453 z"
       id="path2815"
       inkscape:export-filename="C:\Users\et1337\Documents\A3P\ui\shifter.png"
       inkscape:export-xdpi="38.34"
       inkscape:export-ydpi="38.34" />
  </g>
</svg>
